# xmcd CD database file
#
# Track frame offsets:
#	150
#	29873
#	51441
#	79410
#	101987
#	149744
#	173723
#	204246
#	227488
#	256569
#
# Disc length: 3794 seconds
#
# Revision: 0
# Processed by: cddbd v1.5.1PL0 Copyright (c) Steve Scherf et al.
# Submitted via: CDex 1.51
#
DISCID=8e0ed00a
DTITLE=Rick Wakeman - Art In Music Trilogy (Disk 2) The Writer
DYEAR=1997
DGENRE=New Age
TTITLE0=Rick Wakeman - Art In Music Trilogy (Disk 2) The Writer - Seeds Of Thought
TTITLE1=Rick Wakeman - Art In Music Trilogy (Disk 2) The Writer - Preface To A Dream
TTITLE2=Rick Wakeman - Art In Music Trilogy (Disk 2) The Writer - The Mottled Blackbird
TTITLE3=Rick Wakeman - Art In Music Trilogy (Disk 2) The Writer - The Quill
TTITLE4=Rick Wakeman - Art In Music Trilogy (Disk 2) The Writer - Lucky Curve
TTITLE5=Rick Wakeman - Art In Music Trilogy (Disk 2) The Writer - The Evening Fable
TTITLE6=Rick Wakeman - Art In Music Trilogy (Disk 2) The Writer - Shelly Beach
TTITLE7=Rick Wakeman - Art In Music Trilogy (Disk 2) The Writer - Birth Of Nature
TTITLE8=Rick Wakeman - Art In Music Trilogy (Disk 2) The Writer - A Tale Of Spring
TTITLE9=Rick Wakeman - Stories Of Bygone Days
EXTD=YEAR: 1997
EXTT0=
EXTT1=
EXTT2=
EXTT3=
EXTT4=
EXTT5=
EXTT6=
EXTT7=
EXTT8=
EXTT9=
PLAYORDER=
